# xmcd CD database file
#
# Track frame offsets:
#	150
#	39900
#	64047
#	102097
#	148508
#	186930
#	227873
#
# Disc length: 3553 seconds
#
# Revision: 0
# Processed by: cddbd v1.5.2PL0 Copyright (c) Steve Scherf et al.
# Submitted via: CDex 1.51
#
DISCID=580ddf07
DTITLE=Chisnall_Berry_Walsh - Fortune Heights
DYEAR=2002
DGENRE=Jazz
TTITLE0=In Your Dreams
TTITLE1=October Sun
TTITLE2=Bye Bye Blackbird Bird
TTITLE3=If Only
TTITLE4=Blues Connotation
TTITLE5=Words Fail
TTITLE6=AL
EXTD=YEAR: 2002
EXTT0=
EXTT1=
EXTT2=
EXTT3=
EXTT4=
EXTT5=
EXTT6=
PLAYORDER=
